<svg width="259" height="31" viewBox="0 0 259 31" fill="none" xmlns="http://www.w3.org/2000/svg">
<path d="M7.32 7.4V13.08H16.48V18.36H7.32V24.52H17.68V30H0.48V1.92H17.68V7.4H7.32ZM52.2006 7.44C54.974 7.44 57.174 8.28 58.8006 9.96C60.454 11.64 61.2806 13.9733 61.2806 16.96V30H54.4806V17.88C54.4806 16.44 54.094 15.3333 53.3206 14.56C52.574 13.76 51.534 13.36 50.2006 13.36C48.8673 13.36 47.814 13.76 47.0406 14.56C46.294 15.3333 45.9206 16.44 45.9206 17.88V30H39.1206V17.88C39.1206 16.44 38.734 15.3333 37.9606 14.56C37.214 13.76 36.174 13.36 34.8406 13.36C33.5073 13.36 32.454 13.76 31.6806 14.56C30.934 15.3333 30.5606 16.44 30.5606 17.88V30H23.7206V7.68H30.5606V10.48C31.254 9.54667 32.1606 8.81333 33.2806 8.28C34.4006 7.72 35.6673 7.44 37.0806 7.44C38.7606 7.44 40.254 7.8 41.5606 8.52C42.894 9.24 43.934 10.2667 44.6806 11.6C45.454 10.3733 46.5073 9.37333 47.8406 8.6C49.174 7.82667 50.6273 7.44 52.2006 7.44ZM88.7044 18.48C88.7044 19.12 88.6644 19.7867 88.5844 20.48H73.1044C73.211 21.8667 73.651 22.9333 74.4244 23.68C75.2244 24.4 76.1977 24.76 77.3444 24.76C79.051 24.76 80.2377 24.04 80.9044 22.6H88.1844C87.811 24.0667 87.131 25.3867 86.1444 26.56C85.1844 27.7333 83.971 28.6533 82.5044 29.32C81.0377 29.9867 79.3977 30.32 77.5844 30.32C75.3977 30.32 73.451 29.8533 71.7444 28.92C70.0377 27.9867 68.7044 26.6533 67.7444 24.92C66.7844 23.1867 66.3044 21.16 66.3044 18.84C66.3044 16.52 66.771 14.4933 67.7044 12.76C68.6644 11.0267 69.9977 9.69333 71.7044 8.76C73.411 7.82667 75.371 7.36 77.5844 7.36C79.7444 7.36 81.6644 7.81333 83.3444 8.72C85.0244 9.62667 86.331 10.92 87.2644 12.6C88.2244 14.28 88.7044 16.24 88.7044 18.48ZM81.7044 16.68C81.7044 15.5067 81.3044 14.5733 80.5044 13.88C79.7044 13.1867 78.7044 12.84 77.5044 12.84C76.3577 12.84 75.3844 13.1733 74.5844 13.84C73.811 14.5067 73.331 15.4533 73.1444 16.68H81.7044ZM100.753 11.4C101.553 10.1733 102.553 9.21333 103.753 8.52C104.953 7.8 106.286 7.44 107.753 7.44V14.68H105.873C104.166 14.68 102.886 15.0533 102.033 15.8C101.179 16.52 100.753 17.8 100.753 19.64V30H93.9128V7.68H100.753V11.4ZM111.262 18.8C111.262 16.5067 111.689 14.4933 112.542 12.76C113.422 11.0267 114.609 9.69333 116.102 8.76C117.596 7.82667 119.262 7.36 121.102 7.36C122.676 7.36 124.049 7.68 125.222 8.32C126.422 8.96 127.342 9.8 127.982 10.84V7.68H134.822V30H127.982V26.84C127.316 27.88 126.382 28.72 125.182 29.36C124.009 30 122.636 30.32 121.062 30.32C119.249 30.32 117.596 29.8533 116.102 28.92C114.609 27.96 113.422 26.6133 112.542 24.88C111.689 23.12 111.262 21.0933 111.262 18.8ZM127.982 18.84C127.982 17.1333 127.502 15.7867 126.542 14.8C125.609 13.8133 124.462 13.32 123.102 13.32C121.742 13.32 120.582 13.8133 119.622 14.8C118.689 15.76 118.222 17.0933 118.222 18.8C118.222 20.5067 118.689 21.8667 119.622 22.88C120.582 23.8667 121.742 24.36 123.102 24.36C124.462 24.36 125.609 23.8667 126.542 22.88C127.502 21.8933 127.982 20.5467 127.982 18.84ZM148.211 0.4V30H141.371V0.4H148.211ZM153.408 18.8C153.408 16.5067 153.834 14.4933 154.688 12.76C155.568 11.0267 156.754 9.69333 158.248 8.76C159.741 7.82667 161.408 7.36 163.248 7.36C164.714 7.36 166.048 7.66666 167.248 8.28C168.474 8.89333 169.434 9.72 170.128 10.76V0.4H176.968V30H170.128V26.8C169.488 27.8667 168.568 28.72 167.368 29.36C166.194 30 164.821 30.32 163.248 30.32C161.408 30.32 159.741 29.8533 158.248 28.92C156.754 27.96 155.568 26.6133 154.688 24.88C153.834 23.12 153.408 21.0933 153.408 18.8ZM170.128 18.84C170.128 17.1333 169.648 15.7867 168.688 14.8C167.754 13.8133 166.608 13.32 165.248 13.32C163.888 13.32 162.728 13.8133 161.768 14.8C160.834 15.76 160.368 17.0933 160.368 18.8C160.368 20.5067 160.834 21.8667 161.768 22.88C162.728 23.8667 163.888 24.36 165.248 24.36C166.608 24.36 167.754 23.8667 168.688 22.88C169.648 21.8933 170.128 20.5467 170.128 18.84Z" fill="#6DC970"/>
<path d="M193.676 30.28C191.623 30.28 189.783 29.9467 188.156 29.28C186.529 28.6133 185.223 27.6267 184.236 26.32C183.276 25.0133 182.769 23.44 182.716 21.6H189.996C190.103 22.64 190.463 23.44 191.076 24C191.689 24.5333 192.489 24.8 193.476 24.8C194.489 24.8 195.289 24.5733 195.876 24.12C196.463 23.64 196.756 22.9867 196.756 22.16C196.756 21.4667 196.516 20.8933 196.036 20.44C195.583 19.9867 195.009 19.6133 194.316 19.32C193.649 19.0267 192.689 18.6933 191.436 18.32C189.623 17.76 188.143 17.2 186.996 16.64C185.849 16.08 184.863 15.2533 184.036 14.16C183.209 13.0667 182.796 11.64 182.796 9.88C182.796 7.26667 183.743 5.22667 185.636 3.76C187.529 2.26667 189.996 1.52 193.036 1.52C196.129 1.52 198.623 2.26667 200.516 3.76C202.409 5.22667 203.423 7.28 203.556 9.92H196.156C196.103 9.01333 195.769 8.30667 195.156 7.8C194.543 7.26667 193.756 7 192.796 7C191.969 7 191.303 7.22667 190.796 7.68C190.289 8.10666 190.036 8.73333 190.036 9.56C190.036 10.4667 190.463 11.1733 191.316 11.68C192.169 12.1867 193.503 12.7333 195.316 13.32C197.129 13.9333 198.596 14.52 199.716 15.08C200.863 15.64 201.849 16.4533 202.676 17.52C203.503 18.5867 203.916 19.96 203.916 21.64C203.916 23.24 203.503 24.6933 202.676 26C201.876 27.3067 200.703 28.3467 199.156 29.12C197.609 29.8933 195.783 30.28 193.676 30.28ZM230.765 18.48C230.765 19.12 230.725 19.7867 230.645 20.48H215.165C215.272 21.8667 215.712 22.9333 216.485 23.68C217.285 24.4 218.259 24.76 219.405 24.76C221.112 24.76 222.299 24.04 222.965 22.6H230.245C229.872 24.0667 229.192 25.3867 228.205 26.56C227.245 27.7333 226.032 28.6533 224.565 29.32C223.099 29.9867 221.459 30.32 219.645 30.32C217.459 30.32 215.512 29.8533 213.805 28.92C212.099 27.9867 210.765 26.6533 209.805 24.92C208.845 23.1867 208.365 21.16 208.365 18.84C208.365 16.52 208.832 14.4933 209.765 12.76C210.725 11.0267 212.059 9.69333 213.765 8.76C215.472 7.82667 217.432 7.36 219.645 7.36C221.805 7.36 223.725 7.81333 225.405 8.72C227.085 9.62667 228.392 10.92 229.325 12.6C230.285 14.28 230.765 16.24 230.765 18.48ZM223.765 16.68C223.765 15.5067 223.365 14.5733 222.565 13.88C221.765 13.1867 220.765 12.84 219.565 12.84C218.419 12.84 217.445 13.1733 216.645 13.84C215.872 14.5067 215.392 15.4533 215.205 16.68H223.765ZM234.614 18.8C234.614 16.5067 235.04 14.4933 235.894 12.76C236.774 11.0267 237.96 9.69333 239.454 8.76C240.947 7.82667 242.614 7.36 244.454 7.36C246.027 7.36 247.4 7.68 248.574 8.32C249.774 8.96 250.694 9.8 251.334 10.84V7.68H258.174V30H251.334V26.84C250.667 27.88 249.734 28.72 248.534 29.36C247.36 30 245.987 30.32 244.414 30.32C242.6 30.32 240.947 29.8533 239.454 28.92C237.96 27.96 236.774 26.6133 235.894 24.88C235.04 23.12 234.614 21.0933 234.614 18.8ZM251.334 18.84C251.334 17.1333 250.854 15.7867 249.894 14.8C248.96 13.8133 247.814 13.32 246.454 13.32C245.094 13.32 243.934 13.8133 242.974 14.8C242.04 15.76 241.574 17.0933 241.574 18.8C241.574 20.5067 242.04 21.8667 242.974 22.88C243.934 23.8667 245.094 24.36 246.454 24.36C247.814 24.36 248.96 23.8667 249.894 22.88C250.854 21.8933 251.334 20.5467 251.334 18.84Z" fill="white"/>
</svg>
